<svg version="1.1" xmlns="http://www.w3.org/2000/svg" xmlns:xlink="http://www.w3.org/1999/xlink" x="0px" y="0px" width="1000px" height="1000px" viewBox="0 0 1000 1000" style="enable-background:new 0 0 1000 1000;" xml:space="preserve">
	<style type="text/css"> .st2{ fill:none; stroke:#ffffff; }</style>
	<g id="W">
		<path class="st2" d="M260.6,787.2h-16.3L82.7,212.8H103l149.2,534.5h1.6l157.6-534.5h16.7l157.6,534.5h1.6l149.2-534.5h20.3L595.3,787.2H579L420.6,254.6H419L260.6,787.2z" opacity="0"/>
		<path class="st2" d="M269.7,787.2h-27.9L81.5,212.8h32.6L255,732.2h2.8l150.8-519.4h29.5l150.8,519.4h2.4l141.3-519.4h32.6L604.8,787.2H577L424.5,272.5h-2.4L269.7,787.2z" opacity="0"/>
		<path class="st2" d="M287.2,787.2h-50.5l-158-574.3h56.5l126.2,489.5h3.6L403,212.8h54.1l138.1,489.5h3.6L725,212.8h56.5l-158,574.3H573L432.1,307.6h-4L287.2,787.2z" opacity="0"/>
		<path class="st2" d="M300.8,787.2h-67.7L76.7,212.8h74.8l114.2,466.8h4.8l128.6-466.8h72.4L600,679.7h4.8L719,212.8h74.8L637.5,787.2h-67.7L437.7,333.8h-4.8L300.8,787.2z" opacity="0"/>
		<path class="st2" d="M315.5,787.2h-84.4L76.3,212.8H169l105.5,439.8h5.6l119.8-439.8h82.8l120.6,439.8h5.6l105.1-439.8h92.7L651.4,787.2h-84L444,365.7h-5.6L315.5,787.2z" opacity="0"/>
		<path class="st2" d="M326.6,787.2h-96.7l-154-574.3h107.1l98.3,427.4h6l113-427.4h91.1L606,640.3h5.6l98.3-427.4h106.3l-154,574.3h-96.3l-117-406.8h-6L326.6,787.2z" opacity="0"/>
		<path class="st2" d="M341.4,787.2H227.9l-152-574.3h125l89.5,404.8h6.4l104.7-404.8h101.5l106.7,404.8h6.4l88.8-404.8h124.2L676.5,787.2H563.8L455.2,407.1h-6.4L341.4,787.2z" opacity="0"/>
		<path class="st2" d="M362.8,787.2H225.1l-150-574.3h151.6l76.4,380.9h7.2l91.9-380.9h117l95.1,380.9h7.2l75.2-380.9h150.4l-150,574.3H560.2l-95.9-351.8h-7.2L362.8,787.2z" opacity="0"/>
		<path class="st2" d="M381.9,787.2H222.7L74.7,212.8h175.1l64.9,354.2h8l80.8-354.2H534l84.8,354.2h8L690,212.8h173.5L715.5,787.2h-158l-84.8-320.4h-8L381.9,787.2z" opacity="0"/>
	</g>
	<g id="D">
		<path class="st2" d="M448.6,212.8c184.3,0,275,113.4,275,287c0,173.9-90.7,287.4-275,287.4H275.5V212.8H448.6z M295.4,768.4h152.8c165.2,0,254.7-103.9,254.7-268.6c0-164.4-89.5-268.2-254.7-268.2H295.4V768.4z" opacity="0"/>
		<path class="st2" d="M453.8,212.8c180.7,0,273.8,111.8,273.8,287c0,175.5-92.7,287.4-273.8,287.4H275.1V212.8H453.8zM306.9,758.1h145.3c156.8,0,243.2-99.1,243.2-257.9c0-159.2-86.4-258.3-243.2-258.3H306.9V758.1z" opacity="0"/>
		<path class="st2" d="M463.3,212.8c175.1,0,272.6,108.7,272.6,287c0,178.7-97.1,287.4-272.6,287.4h-189V212.8H463.3z M328.8,737.8h131.3c140.5,0,220.1-89.2,220.1-237.6s-80-238-220.1-238H328.8V737.8z" opacity="0"/>
		<path class="st2" d="M470.9,212.8c170.3,0,271,106.3,271,287c0,181.1-100.3,287.4-271,287.4h-197V212.8H470.9z M345.5,722.7h120.6c128.2,0,202.6-82,202.6-222.1c0-140.5-75.2-223.3-202.6-223.3H345.5V722.7z" opacity="0"/>
		<path class="st2" d="M480.1,212.8c170.3,0,270.2,104.7,270.2,285.4c0,183.5-99.1,288.9-270.2,288.9H272.7V212.8H480.1zM361.8,706h108.3c120.2,0,189.4-74.8,189.4-206.6c0-129.7-70.4-205.4-189.4-205.4H361.8V706z" opacity="0"/>
		<path class="st2" d="M486.8,212.8c170.7,0,270.2,104.3,270.2,284.6c0,184.3-98.3,289.7-270.2,289.7H271.5V212.8H486.8zM374.2,698.4h99.1c114.2,0,179.1-71.2,179.1-199.4c0-125.4-66.5-197.4-179.1-197.4h-99.1V698.4z" opacity="0"/>
		<path class="st2" d="M496.4,212.4c170.7,0,269.4,103.5,269.4,283.4c0,186.7-97.5,291.3-269.4,291.3H270.3V212.4H496.4zM390.5,684.5h86.8c106.3,0,166-65.3,166-186.7c0-116.2-61.7-182.7-166-182.7h-86.8V684.5z" opacity="0"/>
		<path class="st2" d="M509.5,212.4c171.1,0,268.6,102.3,268.6,281.8c0,188.6-95.9,292.9-268.6,292.9H268.3V212.4H509.5zM414.4,669.7h68.9c94.7,0,146.1-58.9,146.1-172.7c0-107.1-54.1-167.2-146.1-167.2h-68.9V669.7z" opacity="0"/>
		<path class="st2" d="M521.4,212.4c171.5,0,267.9,100.7,267.9,280.2c0,191-94.3,294.5-267.9,294.5H266.7V212.4H521.4zM435.5,653.4h52.9c84.4,0,129-51.7,129-157.6c0-96.7-47.8-149.6-129-149.6h-52.9V653.4z" opacity="0"/>
	</g>
	<g id="C">
		<path class="st2" d="M211,499.8c0-181.5,97.1-295.3,251.5-295.3c113,0,210.1,82.4,222.5,188.3h-19.9C652.8,298,563.6,223.2,462.5,223.2c-140.5,0-231.6,109.1-231.6,276.6c0,168.4,90.7,277,231.6,277c106.7,0,191.8-66.9,202.6-160H685c-10.3,105.5-101.5,178.7-222.5,178.7C306.9,795.5,211,682.5,211,499.8z" opacity="0"/>
		<path class="st2" d="M211.4,499.8c0-182.3,97.1-296.5,251.9-296.5c114.6,0,211.3,80.8,224.5,187.9H656c-13.9-89.9-96.7-158.4-192.6-158.4c-133.7,0-220.1,104.7-220.1,267.1c0,163.2,86,267.5,220.1,267.5c100.7,0,180.3-60.9,192.6-148.1h31.8c-12.3,105.5-103.5,177.5-224.5,177.5C307.7,796.7,211.4,683.3,211.4,499.8z" opacity="0"/>
		<path class="st2" d="M211.4,500.2c0-184.3,97.1-299.3,252.7-299.3c118.2,0,213.7,78.4,229.2,187.5h-55.3c-16.7-81.2-87.6-136.9-173.9-136.9c-120.2,0-197,96.7-197,248.7c0,152,76.4,248.3,197.4,248.3c88.8,0,157.6-49.4,173.5-125h55.3C677.1,729,586.3,799.1,464.5,799.1C308.5,799.1,211.4,684.5,211.4,500.2z" opacity="0"/>
		<path class="st2" d="M211.8,500.2c0-185.5,97.1-300.9,253.1-300.9c121,0,215.3,76,232.4,186.7h-72.8c-19.1-74-80.4-120.6-159.6-120.6c-110.2,0-179.5,90.7-179.5,234.8s69.3,234.4,179.9,234.4c80,0,140.9-41,159.2-107.5h72.8c-19.1,105.5-109.8,173.5-232,173.5C309.3,800.7,211.8,685.3,211.8,500.2z" opacity="0"/>
		<path class="st2" d="M209.4,500.2c0-186.3,99.1-301.3,258.7-301.3c126.6,0,224.5,82,238.8,199h-88.8c-16.7-70.4-74.4-115.8-150-115.8c-103.1,0-167.6,84-167.6,218.1c0,133.7,64.5,217.7,168,217.7c76,0,133.7-41,149.6-105.9h88.8c-15.9,113.4-110.2,189-238.4,189C308.9,801.1,209.4,686.1,209.4,500.2z" opacity="0"/>
		<path class="st2" d="M207.4,500.2c0-186.7,100.7-301.7,263.5-301.7c130.5,0,231.2,85.2,243.2,205H613c-14.3-68.9-69.6-113.4-142.1-113.4c-97.5,0-158.4,80.4-158.4,209.7c0,129.7,60.9,210.1,158.8,210.1c72.8,0,128.2-40.6,142.1-105.1h101.1c-13.5,117.4-110.6,196.6-243.2,196.6C308.5,801.5,207.4,686.1,207.4,500.2z" opacity="0"/>
		<path class="st2" d="M205,499.8c0-186.7,102.7-301.7,269.4-301.7c136.1,0,240.4,90.3,249.1,215.3h-117C595.1,347.4,542.9,304,474.5,304C384.1,304,328,378.8,328,499.8S384.1,696,474.9,696c68.9,0,120.6-40.6,132.1-103.9h117c-10,124.2-111,209.7-249.5,209.7C308.1,801.9,205,686.9,205,499.8z" opacity="0"/>
		<path class="st2" d="M201.5,499.8c0-187.5,105.5-302.5,277.8-302.5c144.5,0,253.9,96.3,258.3,226.5H597.1c-7.6-62.5-54.9-104.7-117.8-104.7c-80,0-129,68.5-129,180.3c0,112.2,49,181.5,129.3,181.5c62.9,0,109.8-40.6,118.2-102.3H738c-4.8,131.3-111.4,224.1-258.7,224.1C307.3,802.7,201.5,687.3,201.5,499.8z" opacity="0"/>
		<path class="st2" d="M198.3,499.8c0-188.3,107.9-302.9,285.4-302.9c151.6,0,265.9,102.3,266.3,238.8H588.7c-4.4-59.3-47-99.9-105.1-99.9c-70.4,0-113.4,61.7-113.4,163.6c0,102.3,43,164.8,113.8,164.8c57.7,0,100.3-40.2,105.5-100.7h161.2c-0.8,139.7-112.2,239.6-267.1,239.6C306.5,803.1,198.3,688.1,198.3,499.8z" opacity="0"/>
	</g>
</svg>
